{"title":"18+ Blood Orange 2016 UNCENSORED Movies BRRip XviD New +Sample ☻","magnet":"magnet:?xt=urn:btih:8c3577c7ce75f1f8940f3a0ab4042a52388f961b&dn=18%2B+Blood+Orange+2016+UNCENSORED+Movies+BRRip+XviD+New+%2BSample+%E2%98%BB&tr=udp%3A%2F%2Ftracker.leechers-paradise.org%3A6969&tr=udp%3A%2F%2Fzer0day.ch%3A1337&tr=udp%3A%2F%2Fopen.demonii.com%3A1337&tr=udp%3A%2F%2Ftracker.coppersurfer.tk%3A6969&tr=udp%3A%2F%2Fexodus.desync.com%3A6969","uploader":"basicssom","categoryP":"video","categoryS":"movies","size":"746082288","seeders":"0","leechers":"56","description":"----------------------------------------------------------------\r\n18+ Blood Orange 2016 UNCENSORED Movies BRRip XviD AAC New Source with Sample &#x263B;rDX&#x263B;\r\n\r\nSCREEN SHOTS &amp; POSTER:\r\n   <a href=\"\nhttp://postimage.co.nr/2017/8/job/index.html\" rel=\"nofollow\" target=\"_NEW\">\nhttp://postimage.co.nr/2017/8/job/index.html</a>  <a href=\"\nhttp://postimage.co.nr/2017/8/job/1.html\" rel=\"nofollow\" target=\"_NEW\">\nhttp://postimage.co.nr/2017/8/job/1.html</a>   <a href=\"\nhttp://postimage.co.nr/2017/8/job/2.html\" rel=\"nofollow\" target=\"_NEW\">\nhttp://postimage.co.nr/2017/8/job/2.html</a>   <a href=\"\nhttp://postimage.co.nr/2017/8/job/3.html\" rel=\"nofollow\" target=\"_NEW\">\nhttp://postimage.co.nr/2017/8/job/3.html</a>   <a href=\"\nhttp://postimage.co.nr/2017/8/job/4.html\" rel=\"nofollow\" target=\"_NEW\">\nhttp://postimage.co.nr/2017/8/job/4.html</a>   <a href=\"\nhttp://postimage.co.nr/2017/8/job/5.html\" rel=\"nofollow\" target=\"_NEW\">\nhttp://postimage.co.nr/2017/8/job/5.html</a>   <a href=\"\nhttp://postimage.co.nr/2017/8/job/6.html\" rel=\"nofollow\" target=\"_NEW\">\nhttp://postimage.co.nr/2017/8/job/6.html</a>   <a href=\"\nhttp://postimage.co.nr/2017/8/job/7.html\" rel=\"nofollow\" target=\"_NEW\">\nhttp://postimage.co.nr/2017/8/job/7.html</a>   <a href=\"\nhttp://postimage.co.nr/2017/8/job/8.html\" rel=\"nofollow\" target=\"_NEW\">\nhttp://postimage.co.nr/2017/8/job/8.html</a>   <a href=\"\nhttp://postimage.co.nr/2017/8/job/9.html\" rel=\"nofollow\" target=\"_NEW\">\nhttp://postimage.co.nr/2017/8/job/9.html</a>   <a href=\"\nhttp://postimage.co.nr/2017/8/job/10.html\" rel=\"nofollow\" target=\"_NEW\">\nhttp://postimage.co.nr/2017/8/job/10.html</a>\r\n\r\nFile size                                : 698 MiB\r\nDuration                                 : 1 h 23 min\r\nOverall bit rate mode                    : Constant\r\nOverall bit rate                         : 1 167 kb/s\r\nMovie name                               : 18+ Blood Orange 2016 UNCENSORED Movies BRRip XviD AAC New Source &#x263B;rDX&#x263B;\r\n\r\nVideo\r\nID                                       : 2\r\nFormat                                   : AVC\r\nFormat/Info                              : Advanced Video Codec\r\nFormat profile                           : <a class=\"__cf_email__\" href=\"/cdn-cgi/l/email-protection\" data-cfemail=\"9dd0fcf4f3ddd1ae\">[email&#xA0;protected]</a><script data-cfhash=\"f9e31\" type=\"text/javascript\">/* <![CDATA[ */!function(t,e,r,n,c,a,p){try{t=document.currentScript||function(){for(t=document.getElementsByTagName('script'),e=t.length;e--;)if(t[e].getAttribute('data-cfhash'))return t[e]}();if(t&&(c=t.previousSibling)){p=t.parentNode;if(a=c.getAttribute('data-cfemail')){for(e='',r='0x'+a.substr(0,2)|0,n=2;a.length-n;n+=2)e+='%'+('0'+('0x'+a.substr(n,2)^r).toString(16)).slice(-2);p.replaceChild(document.createTextNode(decodeURIComponent(e)),c)}p.removeChild(t)}}catch(u){}}()/* ]]> */</script>\r\nFormat settings, CABAC                   : Yes\r\nFormat settings, ReFrames                : 2 frames\r\nFormat settings, GOP                     : M=1, N=12\r\nCodec ID                                 : V_MPEG4/ISO/AVC\r\nDuration                                 : 1 h 23 min\r\nBit rate mode                            : Constant\r\nBit rate                                 : 720 kb/s\r\nWidth                                    : 720 pixels\r\nHeight                                   : 304 pixels\r\nDisplay aspect ratio                     : 2.35:1\r\nFrame rate mode                          : Constant\r\nFrame rate                               : 24.000 FPS\r\nColor space                              : YUV\r\nChroma subsampling                       : 4:2:0\r\nBit depth                                : 8 bits\r\nScan type                                : Progressive\r\nBits/(Pixel*Frame)                       : 0.137\r\nStream size                              : 416 MiB (60%)\r\nTitle                                    : &#x263B;rDX&#x263B;\r\nDefault                                  : Yes\r\nForced                                   : No\r\n\r\nAudio\r\nID                                       : 1\r\nFormat                                   : AC-3\r\nFormat/Info                              : Audio Coding 3\r\nMode extension                           : CM (complete main)\r\nFormat settings, Endianness              : Big\r\nCodec ID                                 : A_AC3\r\nDuration                                 : 1 h 23 min\r\nBit rate mode                            : Constant\r\nBit rate                                 : 448 kb/s\r\nChannel(s)                               : 6 channels\r\nChannel positions                        : Front: L C R, Side: L R, LFE\r\nSampling rate                            : 48.0 kHz\r\nFrame rate                               : 31.250 FPS (1536 spf)\r\nBit depth                                : 16 bits\r\nCompression mode                         : Lossy\r\nStream size                              : 268 MiB (38%)\r\nTitle                                    : &#x263B;rDX&#x263B;\r\nDefault                                  : Yes\r\nForced                                   : No","last_updated":"2017-08-20T12:04:45.292Z","parsed":{"xt":"urn:btih:8c3577c7ce75f1f8940f3a0ab4042a52388f961b","dn":"18  Blood Orange 2016 UNCENSORED Movies BRRip XviD New  Sample ☻","tr":["udp://exodus.desync.com:6969","udp://open.demonii.com:1337","udp://tracker.coppersurfer.tk:6969","udp://tracker.leechers-paradise.org:6969","udp://zer0day.ch:1337"],"infoHash":"8c3577c7ce75f1f8940f3a0ab4042a52388f961b","infoHashBuffer":{"type":"Buffer","data":[140,53,119,199,206,117,241,248,148,15,58,10,180,4,42,82,56,143,150,27]},"name":"18  Blood Orange 2016 UNCENSORED Movies BRRip XviD New  Sample ☻","announce":["udp://exodus.desync.com:6969","udp://open.demonii.com:1337","udp://tracker.coppersurfer.tk:6969","udp://tracker.leechers-paradise.org:6969","udp://zer0day.ch:1337"],"urlList":[]}}